<svg xmlns="http://www.w3.org/2000/svg" width="1280" height="480" viewBox="0 0 320 120" role="img" aria-labelledby="title desc" lang="en" shape-rendering="crispEdges"><title id="title">Frontend Craft — Faye × Cove — garden</title><desc id="desc">Hand-authored pixel art in ice-cream colors. Frontend Craft and Faye × Cove share the initials FC. Custom pixel lettering floats over a tiny pastel landscape with a small cream computer, interface studies, a sketchbook and a pixel cat. Every shape is drawn by the repository’s Python source; no generated imagery is used.</desc><g id="pixel-art"><path d="M0 0h320v120h-320z" fill="#F7DCE1"/><g id="landscape"><path d="M9 8h14v3h-14z" fill="#FFF5DB"/><path d="M6 11h26v3h-26z" fill="#FFF5DB"/><path d="M4 14h33v4h-33z" fill="#FFF5DB"/><path d="M7 18h26v2h-26z" fill="#FFF5DB"/><path d="M284 5h14v3h-14z" fill="#FFF5DB"/><path d="M281 8h26v3h-26z" fill="#FFF5DB"/><path d="M279 11h33v4h-33z" fill="#FFF5DB"/><path d="M282 15h26v2h-26z" fill="#FFF5DB"/><path d="M97 3h14v3h-14z" fill="#FFF5DB"/><path d="M94 6h26v3h-26z" fill="#FFF5DB"/><path d="M92 9h33v4h-33z" fill="#FFF5DB"/><path d="M95 13h26v2h-26z" fill="#FFF5DB"/><path d="M0 69 L16 69 L16 65 L39 65 L39 70 L63 70 L63 66 L91 66 L91 73 L113 73 L113 67 L133 67 L133 72 L161 72 L161 63 L177 63 L177 66 L207 66 L207 70 L241 70 L241 65 L273 65 L273 70 L300 70 L300 67 L320 67 V120 H0 Z" fill="#D2BCD9"/><path d="M0 82 L23 82 L23 76 L53 76 L53 79 L83 79 L83 83 L127 83 L127 77 L162 77 L162 80 L204 80 L204 84 L250 84 L250 77 L290 77 L290 79 L320 79 V120 H0 Z" fill="#BBD9BD"/><path d="M0 97 L34 97 L34 94 L73 94 L73 99 L109 99 L109 104 L161 104 L161 101 L211 101 L211 96 L263 96 L263 102 L291 102 L291 99 L320 99 V120 H0 Z" fill="#FFF5DB"/><path d="M94 83h28v3h-28z" fill="#F9E9CF"/><path d="M103 86h30v3h-30z" fill="#F9E9CF"/><path d="M117 89h25v3h-25z" fill="#F9E9CF"/><path d="M123 92h18v3h-18z" fill="#F9E9CF"/><path d="M113 95h27v3h-27z" fill="#F9E9CF"/><path d="M96 98h33v3h-33z" fill="#F9E9CF"/><path d="M84 101h34v3h-34z" fill="#F9E9CF"/><path d="M91 104h40v3h-40z" fill="#F9E9CF"/><path d="M112 107h28v3h-28z" fill="#F9E9CF"/><path d="M130 110h38v3h-38z" fill="#F9E9CF"/><path d="M140 113h45v7h-45z" fill="#F9E9CF"/><path d="M101 84h11v1h-11z" fill="#FFF5DB"/><path d="M120 90h12v1h-12z" fill="#FFF5DB"/><path d="M98 99h14v1h-14z" fill="#FFF5DB"/><path d="M144 114h15v1h-15z" fill="#FFF5DB"/><path d="M219 62h2v44h-2z" fill="#967384"/><path d="M299 62h2v44h-2z" fill="#967384"/><path d="M215 61h90v5h-90z" fill="#ECB3C5"/><path d="M219 57h82v4h-82z" fill="#ECB3C5"/><path d="M224 54h72v3h-72z" fill="#FFF5DB"/><path d="M220 61h6v7h-6z" fill="#FFF5DB"/><path d="M232 61h6v7h-6z" fill="#FFF5DB"/><path d="M244 61h6v7h-6z" fill="#FFF5DB"/><path d="M256 61h6v7h-6z" fill="#FFF5DB"/><path d="M268 61h6v7h-6z" fill="#FFF5DB"/><path d="M280 61h6v7h-6z" fill="#FFF5DB"/><path d="M292 61h6v7h-6z" fill="#FFF5DB"/><g transform="translate(64 43) scale(.75)"><path d="M206 35h67v43h-67z" fill="#967384"/><path d="M209 32h61v3h-61z" fill="#967384"/><path d="M209 35h61v40h-61z" fill="#FFF5DB"/><path d="M213 39h53v30h-53z" fill="#9F84B6"/><path d="M215 41h49v26h-49z" fill="#F9E9CF"/><path d="M218 44h13v20h-13z" fill="#BBD9BD"/><path d="M234 44h27v4h-27z" fill="#ECB3C5"/><path d="M234 51h12v13h-12z" fill="#D2BCD9"/><path d="M249 51h12v6h-12z" fill="#FFF5DB"/><path d="M249 60h8v4h-8z" fill="#E8C4A4"/><path d="M256 71h4v2h-4z" fill="#C97F9C"/><path d="M234 78h10v5h-10z" fill="#967384"/><path d="M226 83h27v3h-27z" fill="#967384"/><path d="M228 82h23v2h-23z" fill="#D2BCD9"/><path d="M197 90h107v5h-107z" fill="#967384"/><path d="M195 87h107v4h-107z" fill="#E8C4A4"/><path d="M200 88h98v1h-98z" fill="#FFF5DB"/><path d="M201 95h5v18h-5z" fill="#967384"/><path d="M294 95h5v18h-5z" fill="#967384"/><path d="M206 95h88v2h-88z" fill="#C97F9C"/><path d="M214 85h42v2h-42z" fill="#FFF5DB"/><path d="M217 85h2v1h-2z" fill="#967384"/><path d="M221 85h2v1h-2z" fill="#967384"/><path d="M225 85h2v1h-2z" fill="#967384"/><path d="M229 85h2v1h-2z" fill="#967384"/><path d="M233 85h2v1h-2z" fill="#967384"/><path d="M237 85h2v1h-2z" fill="#967384"/><path d="M241 85h2v1h-2z" fill="#967384"/><path d="M245 85h2v1h-2z" fill="#967384"/><path d="M249 85h2v1h-2z" fill="#967384"/><path d="M277 83h19v4h-19z" fill="#9F84B6"/><path d="M277 82h19v2h-19z" fill="#FFF5DB"/><path d="M279 66h2v1h-2z" fill="#967384"/><path d="M288 66h2v1h-2z" fill="#967384"/><path d="M279 67h1v1h-1z" fill="#967384"/><path d="M280 67h1v1h-1z" fill="#FFF5DB"/><path d="M281 67h1v1h-1z" fill="#967384"/><path d="M287 67h1v1h-1z" fill="#967384"/><path d="M288 67h1v1h-1z" fill="#FFF5DB"/><path d="M289 67h1v1h-1z" fill="#967384"/><path d="M279 68h1v1h-1z" fill="#967384"/><path d="M280 68h3v1h-3z" fill="#FFF5DB"/><path d="M283 68h4v1h-4z" fill="#967384"/><path d="M287 68h3v1h-3z" fill="#FFF5DB"/><path d="M290 68h1v1h-1z" fill="#967384"/><path d="M278 69h1v1h-1z" fill="#967384"/><path d="M279 69h12v1h-12z" fill="#FFF5DB"/><path d="M291 69h1v1h-1z" fill="#967384"/><path d="M277 70h1v1h-1z" fill="#967384"/><path d="M278 70h3v1h-3z" fill="#FFF5DB"/><path d="M281 70h2v1h-2z" fill="#E8C4A4"/><path d="M283 70h4v1h-4z" fill="#FFF5DB"/><path d="M287 70h2v1h-2z" fill="#E8C4A4"/><path d="M289 70h3v1h-3z" fill="#FFF5DB"/><path d="M292 70h1v1h-1z" fill="#967384"/><path d="M277 71h1v1h-1z" fill="#967384"/><path d="M278 71h3v1h-3z" fill="#FFF5DB"/><path d="M281 71h1v1h-1z" fill="#E8C4A4"/><path d="M282 71h1v1h-1z" fill="#967384"/><path d="M283 71h4v1h-4z" fill="#FFF5DB"/><path d="M287 71h1v1h-1z" fill="#E8C4A4"/><path d="M288 71h1v1h-1z" fill="#967384"/><path d="M289 71h3v1h-3z" fill="#FFF5DB"/><path d="M292 71h1v1h-1z" fill="#967384"/><path d="M277 72h1v1h-1z" fill="#967384"/><path d="M278 72h6v1h-6z" fill="#FFF5DB"/><path d="M284 72h2v1h-2z" fill="#E8C4A4"/><path d="M286 72h6v1h-6z" fill="#FFF5DB"/><path d="M292 72h1v1h-1z" fill="#967384"/><path d="M278 73h1v1h-1z" fill="#967384"/><path d="M279 73h3v1h-3z" fill="#FFF5DB"/><path d="M282 73h1v1h-1z" fill="#C97F9C"/><path d="M283 73h1v1h-1z" fill="#FFF5DB"/><path d="M284 73h2v1h-2z" fill="#E8C4A4"/><path d="M286 73h1v1h-1z" fill="#FFF5DB"/><path d="M287 73h1v1h-1z" fill="#C97F9C"/><path d="M288 73h3v1h-3z" fill="#FFF5DB"/><path d="M291 73h1v1h-1z" fill="#967384"/><path d="M279 74h12v1h-12z" fill="#967384"/><path d="M280 75h1v1h-1z" fill="#967384"/><path d="M281 75h8v1h-8z" fill="#FFF5DB"/><path d="M289 75h1v1h-1z" fill="#967384"/><path d="M292 75h2v1h-2z" fill="#967384"/><path d="M280 76h1v1h-1z" fill="#967384"/><path d="M281 76h2v1h-2z" fill="#FFF5DB"/><path d="M283 76h4v1h-4z" fill="#E8C4A4"/><path d="M287 76h2v1h-2z" fill="#FFF5DB"/><path d="M289 76h1v1h-1z" fill="#967384"/><path d="M291 76h1v1h-1z" fill="#967384"/><path d="M292 76h1v1h-1z" fill="#FFF5DB"/><path d="M293 76h1v1h-1z" fill="#967384"/><path d="M280 77h1v1h-1z" fill="#967384"/><path d="M281 77h2v1h-2z" fill="#FFF5DB"/><path d="M283 77h4v1h-4z" fill="#E8C4A4"/><path d="M287 77h2v1h-2z" fill="#FFF5DB"/><path d="M289 77h1v1h-1z" fill="#967384"/><path d="M291 77h1v1h-1z" fill="#967384"/><path d="M292 77h1v1h-1z" fill="#FFF5DB"/><path d="M293 77h1v1h-1z" fill="#967384"/><path d="M279 78h1v1h-1z" fill="#967384"/><path d="M280 78h3v1h-3z" fill="#FFF5DB"/><path d="M283 78h4v1h-4z" fill="#E8C4A4"/><path d="M287 78h3v1h-3z" fill="#FFF5DB"/><path d="M290 78h1v1h-1z" fill="#967384"/><path d="M291 78h1v1h-1z" fill="#FFF5DB"/><path d="M292 78h1v1h-1z" fill="#967384"/><path d="M279 79h13v1h-13z" fill="#967384"/><path d="M195 72h2v1h-2z" fill="#BBD9BD"/><path d="M195 73h1v1h-1z" fill="#BBD9BD"/><path d="M196 73h1v1h-1z" fill="#779C88"/><path d="M197 73h1v1h-1z" fill="#BBD9BD"/><path d="M200 73h2v1h-2z" fill="#BBD9BD"/><path d="M196 74h1v1h-1z" fill="#779C88"/><path d="M197 74h1v1h-1z" fill="#BBD9BD"/><path d="M199 74h1v1h-1z" fill="#BBD9BD"/><path d="M200 74h1v1h-1z" fill="#779C88"/><path d="M201 74h1v1h-1z" fill="#BBD9BD"/><path d="M193 75h2v1h-2z" fill="#BBD9BD"/><path d="M197 75h1v1h-1z" fill="#779C88"/><path d="M199 75h1v1h-1z" fill="#BBD9BD"/><path d="M200 75h1v1h-1z" fill="#779C88"/><path d="M192 76h1v1h-1z" fill="#BBD9BD"/><path d="M193 76h2v1h-2z" fill="#779C88"/><path d="M195 76h1v1h-1z" fill="#BBD9BD"/><path d="M197 76h3v1h-3z" fill="#779C88"/><path d="M193 77h2v1h-2z" fill="#BBD9BD"/><path d="M195 77h3v1h-3z" fill="#779C88"/><path d="M196 78h1v1h-1z" fill="#779C88"/><path d="M193 79h7v1h-7z" fill="#967384"/><path d="M193 80h1v1h-1z" fill="#967384"/><path d="M194 80h5v1h-5z" fill="#ECB3C5"/><path d="M199 80h1v1h-1z" fill="#967384"/><path d="M194 81h1v1h-1z" fill="#967384"/><path d="M195 81h3v1h-3z" fill="#ECB3C5"/><path d="M198 81h1v1h-1z" fill="#967384"/><path d="M194 82h5v1h-5z" fill="#967384"/></g><path d="M216 106h12v5h-12z" fill="#FFF5DB"/><path d="M228 106h12v5h-12z" fill="#ECB3C5"/><path d="M240 106h12v5h-12z" fill="#FFF5DB"/><path d="M252 106h12v5h-12z" fill="#ECB3C5"/><path d="M264 106h12v5h-12z" fill="#FFF5DB"/><path d="M276 106h12v5h-12z" fill="#ECB3C5"/><path d="M288 106h12v5h-12z" fill="#FFF5DB"/><path d="M216 111h12v5h-12z" fill="#ECB3C5"/><path d="M228 111h12v5h-12z" fill="#FFF5DB"/><path d="M240 111h12v5h-12z" fill="#ECB3C5"/><path d="M252 111h12v5h-12z" fill="#FFF5DB"/><path d="M264 111h12v5h-12z" fill="#ECB3C5"/><path d="M276 111h12v5h-12z" fill="#FFF5DB"/><path d="M288 111h12v5h-12z" fill="#ECB3C5"/><path d="M30 89h48v17h-48z" fill="#D2BCD9"/><path d="M32 91h4v13h-4z" fill="#FFF5DB"/><path d="M40 91h4v13h-4z" fill="#FFF5DB"/><path d="M48 91h4v13h-4z" fill="#FFF5DB"/><path d="M56 91h4v13h-4z" fill="#FFF5DB"/><path d="M64 91h4v13h-4z" fill="#FFF5DB"/><path d="M72 91h4v13h-4z" fill="#FFF5DB"/><path d="M32 96h44v3h-44z" fill="#ECB3C5"/><path d="M44 74h2v1h-2z" fill="#967384"/><path d="M53 74h2v1h-2z" fill="#967384"/><path d="M44 75h1v1h-1z" fill="#967384"/><path d="M45 75h1v1h-1z" fill="#FFF5DB"/><path d="M46 75h1v1h-1z" fill="#967384"/><path d="M52 75h1v1h-1z" fill="#967384"/><path d="M53 75h1v1h-1z" fill="#FFF5DB"/><path d="M54 75h1v1h-1z" fill="#967384"/><path d="M44 76h1v1h-1z" fill="#967384"/><path d="M45 76h3v1h-3z" fill="#FFF5DB"/><path d="M48 76h4v1h-4z" fill="#967384"/><path d="M52 76h3v1h-3z" fill="#FFF5DB"/><path d="M55 76h1v1h-1z" fill="#967384"/><path d="M43 77h1v1h-1z" fill="#967384"/><path d="M44 77h12v1h-12z" fill="#FFF5DB"/><path d="M56 77h1v1h-1z" fill="#967384"/><path d="M42 78h1v1h-1z" fill="#967384"/><path d="M43 78h3v1h-3z" fill="#FFF5DB"/><path d="M46 78h2v1h-2z" fill="#E8C4A4"/><path d="M48 78h4v1h-4z" fill="#FFF5DB"/><path d="M52 78h2v1h-2z" fill="#E8C4A4"/><path d="M54 78h3v1h-3z" fill="#FFF5DB"/><path d="M57 78h1v1h-1z" fill="#967384"/><path d="M42 79h1v1h-1z" fill="#967384"/><path d="M43 79h3v1h-3z" fill="#FFF5DB"/><path d="M46 79h1v1h-1z" fill="#E8C4A4"/><path d="M47 79h1v1h-1z" fill="#967384"/><path d="M48 79h4v1h-4z" fill="#FFF5DB"/><path d="M52 79h1v1h-1z" fill="#E8C4A4"/><path d="M53 79h1v1h-1z" fill="#967384"/><path d="M54 79h3v1h-3z" fill="#FFF5DB"/><path d="M57 79h1v1h-1z" fill="#967384"/><path d="M42 80h1v1h-1z" fill="#967384"/><path d="M43 80h6v1h-6z" fill="#FFF5DB"/><path d="M49 80h2v1h-2z" fill="#E8C4A4"/><path d="M51 80h6v1h-6z" fill="#FFF5DB"/><path d="M57 80h1v1h-1z" fill="#967384"/><path d="M43 81h1v1h-1z" fill="#967384"/><path d="M44 81h3v1h-3z" fill="#FFF5DB"/><path d="M47 81h1v1h-1z" fill="#C97F9C"/><path d="M48 81h1v1h-1z" fill="#FFF5DB"/><path d="M49 81h2v1h-2z" fill="#E8C4A4"/><path d="M51 81h1v1h-1z" fill="#FFF5DB"/><path d="M52 81h1v1h-1z" fill="#C97F9C"/><path d="M53 81h3v1h-3z" fill="#FFF5DB"/><path d="M56 81h1v1h-1z" fill="#967384"/><path d="M44 82h12v1h-12z" fill="#967384"/><path d="M45 83h1v1h-1z" fill="#967384"/><path d="M46 83h8v1h-8z" fill="#FFF5DB"/><path d="M54 83h1v1h-1z" fill="#967384"/><path d="M57 83h2v1h-2z" fill="#967384"/><path d="M45 84h1v1h-1z" fill="#967384"/><path d="M46 84h2v1h-2z" fill="#FFF5DB"/><path d="M48 84h4v1h-4z" fill="#E8C4A4"/><path d="M52 84h2v1h-2z" fill="#FFF5DB"/><path d="M54 84h1v1h-1z" fill="#967384"/><path d="M56 84h1v1h-1z" fill="#967384"/><path d="M57 84h1v1h-1z" fill="#FFF5DB"/><path d="M58 84h1v1h-1z" fill="#967384"/><path d="M45 85h1v1h-1z" fill="#967384"/><path d="M46 85h2v1h-2z" fill="#FFF5DB"/><path d="M48 85h4v1h-4z" fill="#E8C4A4"/><path d="M52 85h2v1h-2z" fill="#FFF5DB"/><path d="M54 85h1v1h-1z" fill="#967384"/><path d="M56 85h1v1h-1z" fill="#967384"/><path d="M57 85h1v1h-1z" fill="#FFF5DB"/><path d="M58 85h1v1h-1z" fill="#967384"/><path d="M44 86h1v1h-1z" fill="#967384"/><path d="M45 86h3v1h-3z" fill="#FFF5DB"/><path d="M48 86h4v1h-4z" fill="#E8C4A4"/><path d="M52 86h3v1h-3z" fill="#FFF5DB"/><path d="M55 86h1v1h-1z" fill="#967384"/><path d="M56 86h1v1h-1z" fill="#FFF5DB"/><path d="M57 86h1v1h-1z" fill="#967384"/><path d="M44 87h13v1h-13z" fill="#967384"/><path d="M71 84h4v1h-4z" fill="#C97F9C"/><path d="M69 85h2v1h-2z" fill="#C97F9C"/><path d="M71 85h4v1h-4z" fill="#ECB3C5"/><path d="M75 85h2v1h-2z" fill="#C97F9C"/><path d="M68 86h1v1h-1z" fill="#C97F9C"/><path d="M69 86h2v1h-2z" fill="#ECB3C5"/><path d="M71 86h1v1h-1z" fill="#FFF5DB"/><path d="M72 86h5v1h-5z" fill="#ECB3C5"/><path d="M77 86h1v1h-1z" fill="#C97F9C"/><path d="M67 87h1v1h-1z" fill="#C97F9C"/><path d="M68 87h2v1h-2z" fill="#ECB3C5"/><path d="M70 87h2v1h-2z" fill="#FFF5DB"/><path d="M72 87h6v1h-6z" fill="#ECB3C5"/><path d="M78 87h1v1h-1z" fill="#C97F9C"/><path d="M67 88h1v1h-1z" fill="#C97F9C"/><path d="M68 88h10v1h-10z" fill="#ECB3C5"/><path d="M78 88h1v1h-1z" fill="#C97F9C"/><path d="M68 89h10v1h-10z" fill="#C97F9C"/><path d="M69 90h1v1h-1z" fill="#967384"/><path d="M70 90h6v1h-6z" fill="#E8C4A4"/><path d="M76 90h1v1h-1z" fill="#967384"/><path d="M69 91h1v1h-1z" fill="#967384"/><path d="M70 91h1v1h-1z" fill="#E8C4A4"/><path d="M71 91h1v1h-1z" fill="#FFF5DB"/><path d="M72 91h4v1h-4z" fill="#E8C4A4"/><path d="M76 91h1v1h-1z" fill="#967384"/><path d="M70 92h1v1h-1z" fill="#967384"/><path d="M71 92h4v1h-4z" fill="#E8C4A4"/><path d="M75 92h1v1h-1z" fill="#967384"/><path d="M70 93h1v1h-1z" fill="#967384"/><path d="M71 93h1v1h-1z" fill="#FFF5DB"/><path d="M72 93h1v1h-1z" fill="#E8C4A4"/><path d="M73 93h1v1h-1z" fill="#FFF5DB"/><path d="M74 93h1v1h-1z" fill="#E8C4A4"/><path d="M75 93h1v1h-1z" fill="#967384"/><path d="M71 94h1v1h-1z" fill="#967384"/><path d="M72 94h2v1h-2z" fill="#E8C4A4"/><path d="M74 94h1v1h-1z" fill="#967384"/><path d="M71 95h1v1h-1z" fill="#967384"/><path d="M72 95h1v1h-1z" fill="#FFF5DB"/><path d="M73 95h1v1h-1z" fill="#967384"/><path d="M72 96h1v1h-1z" fill="#967384"/><path d="M15 75h2v1h-2z" fill="#BBD9BD"/><path d="M15 76h1v1h-1z" fill="#BBD9BD"/><path d="M16 76h1v1h-1z" fill="#779C88"/><path d="M17 76h1v1h-1z" fill="#BBD9BD"/><path d="M20 76h2v1h-2z" fill="#BBD9BD"/><path d="M16 77h1v1h-1z" fill="#779C88"/><path d="M17 77h1v1h-1z" fill="#BBD9BD"/><path d="M19 77h1v1h-1z" fill="#BBD9BD"/><path d="M20 77h1v1h-1z" fill="#779C88"/><path d="M21 77h1v1h-1z" fill="#BBD9BD"/><path d="M13 78h2v1h-2z" fill="#BBD9BD"/><path d="M17 78h1v1h-1z" fill="#779C88"/><path d="M19 78h1v1h-1z" fill="#BBD9BD"/><path d="M20 78h1v1h-1z" fill="#779C88"/><path d="M12 79h1v1h-1z" fill="#BBD9BD"/><path d="M13 79h2v1h-2z" fill="#779C88"/><path d="M15 79h1v1h-1z" fill="#BBD9BD"/><path d="M17 79h3v1h-3z" fill="#779C88"/><path d="M13 80h2v1h-2z" fill="#BBD9BD"/><path d="M15 80h3v1h-3z" fill="#779C88"/><path d="M16 81h1v1h-1z" fill="#779C88"/><path d="M13 82h7v1h-7z" fill="#967384"/><path d="M13 83h1v1h-1z" fill="#967384"/><path d="M14 83h5v1h-5z" fill="#ECB3C5"/><path d="M19 83h1v1h-1z" fill="#967384"/><path d="M14 84h1v1h-1z" fill="#967384"/><path d="M15 84h3v1h-3z" fill="#ECB3C5"/><path d="M18 84h1v1h-1z" fill="#967384"/><path d="M14 85h5v1h-5z" fill="#967384"/><path d="M5 103h4v2h-4z" fill="#C97F9C"/><path d="M3 105h8v2h-8z" fill="#C97F9C"/><path d="M1 107h4v2h-4z" fill="#C97F9C"/><path d="M5 107h4v2h-4z" fill="#FFF5DB"/><path d="M9 107h4v2h-4z" fill="#C97F9C"/><path d="M1 109h4v2h-4z" fill="#C97F9C"/><path d="M5 109h4v2h-4z" fill="#FFF5DB"/><path d="M9 109h4v2h-4z" fill="#C97F9C"/><path d="M3 111h8v2h-8z" fill="#C97F9C"/><path d="M5 113h2v2h-2z" fill="#C97F9C"/><path d="M7 113h2v2h-2z" fill="#779C88"/><path d="M7 115h2v2h-2z" fill="#779C88"/><path d="M9 115h4v2h-4z" fill="#BBD9BD"/><path d="M7 117h4v2h-4z" fill="#779C88"/><path d="M21 111h2v1h-2z" fill="#D2BCD9"/><path d="M20 112h4v1h-4z" fill="#D2BCD9"/><path d="M19 113h2v1h-2z" fill="#D2BCD9"/><path d="M21 113h2v1h-2z" fill="#FFF5DB"/><path d="M23 113h2v1h-2z" fill="#D2BCD9"/><path d="M19 114h2v1h-2z" fill="#D2BCD9"/><path d="M21 114h2v1h-2z" fill="#FFF5DB"/><path d="M23 114h2v1h-2z" fill="#D2BCD9"/><path d="M20 115h4v1h-4z" fill="#D2BCD9"/><path d="M21 116h1v1h-1z" fill="#D2BCD9"/><path d="M22 116h1v1h-1z" fill="#779C88"/><path d="M22 117h1v1h-1z" fill="#779C88"/><path d="M23 117h2v1h-2z" fill="#BBD9BD"/><path d="M22 118h2v1h-2z" fill="#779C88"/><path d="M75 111h2v1h-2z" fill="#ECB3C5"/><path d="M74 112h4v1h-4z" fill="#ECB3C5"/><path d="M73 113h2v1h-2z" fill="#ECB3C5"/><path d="M75 113h2v1h-2z" fill="#FFF5DB"/><path d="M77 113h2v1h-2z" fill="#ECB3C5"/><path d="M73 114h2v1h-2z" fill="#ECB3C5"/><path d="M75 114h2v1h-2z" fill="#FFF5DB"/><path d="M77 114h2v1h-2z" fill="#ECB3C5"/><path d="M74 115h4v1h-4z" fill="#ECB3C5"/><path d="M75 116h1v1h-1z" fill="#ECB3C5"/><path d="M76 116h1v1h-1z" fill="#779C88"/><path d="M76 117h1v1h-1z" fill="#779C88"/><path d="M77 117h2v1h-2z" fill="#BBD9BD"/><path d="M76 118h2v1h-2z" fill="#779C88"/><path d="M171 102h4v2h-4z" fill="#ECB3C5"/><path d="M169 104h8v2h-8z" fill="#ECB3C5"/><path d="M167 106h4v2h-4z" fill="#ECB3C5"/><path d="M171 106h4v2h-4z" fill="#FFF5DB"/><path d="M175 106h4v2h-4z" fill="#ECB3C5"/><path d="M167 108h4v2h-4z" fill="#ECB3C5"/><path d="M171 108h4v2h-4z" fill="#FFF5DB"/><path d="M175 108h4v2h-4z" fill="#ECB3C5"/><path d="M169 110h8v2h-8z" fill="#ECB3C5"/><path d="M171 112h2v2h-2z" fill="#ECB3C5"/><path d="M173 112h2v2h-2z" fill="#779C88"/><path d="M173 114h2v2h-2z" fill="#779C88"/><path d="M175 114h4v2h-4z" fill="#BBD9BD"/><path d="M173 116h4v2h-4z" fill="#779C88"/><path d="M197 113h2v1h-2z" fill="#D2BCD9"/><path d="M196 114h4v1h-4z" fill="#D2BCD9"/><path d="M195 115h2v1h-2z" fill="#D2BCD9"/><path d="M197 115h2v1h-2z" fill="#FFF5DB"/><path d="M199 115h2v1h-2z" fill="#D2BCD9"/><path d="M195 116h2v1h-2z" fill="#D2BCD9"/><path d="M197 116h2v1h-2z" fill="#FFF5DB"/><path d="M199 116h2v1h-2z" fill="#D2BCD9"/><path d="M196 117h4v1h-4z" fill="#D2BCD9"/><path d="M197 118h1v1h-1z" fill="#D2BCD9"/><path d="M198 118h1v1h-1z" fill="#779C88"/><path d="M198 119h1v1h-1z" fill="#779C88"/><path d="M199 119h2v1h-2z" fill="#BBD9BD"/><path d="M198 120h2v1h-2z" fill="#779C88"/><path d="M304 102h4v2h-4z" fill="#C97F9C"/><path d="M302 104h8v2h-8z" fill="#C97F9C"/><path d="M300 106h4v2h-4z" fill="#C97F9C"/><path d="M304 106h4v2h-4z" fill="#FFF5DB"/><path d="M308 106h4v2h-4z" fill="#C97F9C"/><path d="M300 108h4v2h-4z" fill="#C97F9C"/><path d="M304 108h4v2h-4z" fill="#FFF5DB"/><path d="M308 108h4v2h-4z" fill="#C97F9C"/><path d="M302 110h8v2h-8z" fill="#C97F9C"/><path d="M304 112h2v2h-2z" fill="#C97F9C"/><path d="M306 112h2v2h-2z" fill="#779C88"/><path d="M306 114h2v2h-2z" fill="#779C88"/><path d="M308 114h4v2h-4z" fill="#BBD9BD"/><path d="M306 116h4v2h-4z" fill="#779C88"/><path d="M281 114h2v1h-2z" fill="#ECB3C5"/><path d="M280 115h4v1h-4z" fill="#ECB3C5"/><path d="M279 116h2v1h-2z" fill="#ECB3C5"/><path d="M281 116h2v1h-2z" fill="#FFF5DB"/><path d="M283 116h2v1h-2z" fill="#ECB3C5"/><path d="M279 117h2v1h-2z" fill="#ECB3C5"/><path d="M281 117h2v1h-2z" fill="#FFF5DB"/><path d="M283 117h2v1h-2z" fill="#ECB3C5"/><path d="M280 118h4v1h-4z" fill="#ECB3C5"/><path d="M281 119h1v1h-1z" fill="#ECB3C5"/><path d="M282 119h1v1h-1z" fill="#779C88"/><path d="M282 120h1v1h-1z" fill="#779C88"/><path d="M283 120h2v1h-2z" fill="#BBD9BD"/><path d="M282 121h2v1h-2z" fill="#779C88"/><path d="M151 78h2v1h-2z" fill="#FFF5DB"/><path d="M150 79h4v1h-4z" fill="#FFF5DB"/><path d="M149 80h2v1h-2z" fill="#FFF5DB"/><path d="M151 80h2v1h-2z" fill="#FFF5DB"/><path d="M153 80h2v1h-2z" fill="#FFF5DB"/><path d="M149 81h2v1h-2z" fill="#FFF5DB"/><path d="M151 81h2v1h-2z" fill="#FFF5DB"/><path d="M153 81h2v1h-2z" fill="#FFF5DB"/><path d="M150 82h4v1h-4z" fill="#FFF5DB"/><path d="M151 83h1v1h-1z" fill="#FFF5DB"/><path d="M152 83h1v1h-1z" fill="#779C88"/><path d="M152 84h1v1h-1z" fill="#779C88"/><path d="M153 84h2v1h-2z" fill="#BBD9BD"/><path d="M152 85h2v1h-2z" fill="#779C88"/><path d="M87 74h2v1h-2z" fill="#FFF5DB"/><path d="M86 75h4v1h-4z" fill="#FFF5DB"/><path d="M85 76h2v1h-2z" fill="#FFF5DB"/><path d="M87 76h2v1h-2z" fill="#FFF5DB"/><path d="M89 76h2v1h-2z" fill="#FFF5DB"/><path d="M85 77h2v1h-2z" fill="#FFF5DB"/><path d="M87 77h2v1h-2z" fill="#FFF5DB"/><path d="M89 77h2v1h-2z" fill="#FFF5DB"/><path d="M86 78h4v1h-4z" fill="#FFF5DB"/><path d="M87 79h1v1h-1z" fill="#FFF5DB"/><path d="M88 79h1v1h-1z" fill="#779C88"/><path d="M88 80h1v1h-1z" fill="#779C88"/><path d="M89 80h2v1h-2z" fill="#BBD9BD"/><path d="M88 81h2v1h-2z" fill="#779C88"/><path d="M19 60h1v3h-1z" fill="#779C88"/><path d="M17 61h2v1h-2z" fill="#779C88"/><path d="M181 68h1v3h-1z" fill="#779C88"/><path d="M179 69h2v1h-2z" fill="#779C88"/><path d="M309 83h1v3h-1z" fill="#779C88"/><path d="M307 84h2v1h-2z" fill="#779C88"/><path d="M81 100h1v3h-1z" fill="#779C88"/><path d="M79 101h2v1h-2z" fill="#779C88"/><path d="M189 95h1v3h-1z" fill="#779C88"/><path d="M187 96h2v1h-2z" fill="#779C88"/><path d="M8 45h4v2h-4z" fill="#ECB3C5"/><path d="M6 47h8v2h-8z" fill="#ECB3C5"/><path d="M4 49h4v2h-4z" fill="#ECB3C5"/><path d="M8 49h4v2h-4z" fill="#FFF5DB"/><path d="M12 49h4v2h-4z" fill="#ECB3C5"/><path d="M4 51h4v2h-4z" fill="#ECB3C5"/><path d="M8 51h4v2h-4z" fill="#FFF5DB"/><path d="M12 51h4v2h-4z" fill="#ECB3C5"/><path d="M6 53h8v2h-8z" fill="#ECB3C5"/><path d="M8 55h2v2h-2z" fill="#ECB3C5"/><path d="M10 55h2v2h-2z" fill="#779C88"/><path d="M10 57h2v2h-2z" fill="#779C88"/><path d="M12 57h4v2h-4z" fill="#BBD9BD"/><path d="M10 59h4v2h-4z" fill="#779C88"/><path d="M301 41h4v2h-4z" fill="#ECB3C5"/><path d="M299 43h8v2h-8z" fill="#ECB3C5"/><path d="M297 45h4v2h-4z" fill="#ECB3C5"/><path d="M301 45h4v2h-4z" fill="#FFF5DB"/><path d="M305 45h4v2h-4z" fill="#ECB3C5"/><path d="M297 47h4v2h-4z" fill="#ECB3C5"/><path d="M301 47h4v2h-4z" fill="#FFF5DB"/><path d="M305 47h4v2h-4z" fill="#ECB3C5"/><path d="M299 49h8v2h-8z" fill="#ECB3C5"/><path d="M301 51h2v2h-2z" fill="#ECB3C5"/><path d="M303 51h2v2h-2z" fill="#779C88"/><path d="M303 53h2v2h-2z" fill="#779C88"/><path d="M305 53h4v2h-4z" fill="#BBD9BD"/><path d="M303 55h4v2h-4z" fill="#779C88"/><path d="M189 78h4v2h-4z" fill="#ECB3C5"/><path d="M187 80h8v2h-8z" fill="#ECB3C5"/><path d="M185 82h4v2h-4z" fill="#ECB3C5"/><path d="M189 82h4v2h-4z" fill="#FFF5DB"/><path d="M193 82h4v2h-4z" fill="#ECB3C5"/><path d="M185 84h4v2h-4z" fill="#ECB3C5"/><path d="M189 84h4v2h-4z" fill="#FFF5DB"/><path d="M193 84h4v2h-4z" fill="#ECB3C5"/><path d="M187 86h8v2h-8z" fill="#ECB3C5"/><path d="M189 88h2v2h-2z" fill="#ECB3C5"/><path d="M191 88h2v2h-2z" fill="#779C88"/><path d="M191 90h2v2h-2z" fill="#779C88"/><path d="M193 90h4v2h-4z" fill="#BBD9BD"/><path d="M191 92h4v2h-4z" fill="#779C88"/></g><g id="lettering"><g aria-label="FRONTEND CRAFT"><path d="M35 20h15v3h-15z" fill="#68455D"/><path d="M35 23h3v3h-3z" fill="#68455D"/><path d="M35 26h3v3h-3z" fill="#68455D"/><path d="M35 29h12v3h-12z" fill="#68455D"/><path d="M35 32h3v3h-3z" fill="#68455D"/><path d="M35 35h3v3h-3z" fill="#68455D"/><path d="M35 38h3v3h-3z" fill="#68455D"/><path d="M53 20h12v3h-12z" fill="#68455D"/><path d="M53 23h3v3h-3z" fill="#68455D"/><path d="M65 23h3v3h-3z" fill="#68455D"/><path d="M53 26h3v3h-3z" fill="#68455D"/><path d="M65 26h3v3h-3z" fill="#68455D"/><path d="M53 29h12v3h-12z" fill="#68455D"/><path d="M53 32h3v3h-3z" fill="#68455D"/><path d="M59 32h3v3h-3z" fill="#68455D"/><path d="M53 35h3v3h-3z" fill="#68455D"/><path d="M62 35h3v3h-3z" fill="#68455D"/><path d="M53 38h3v3h-3z" fill="#68455D"/><path d="M65 38h3v3h-3z" fill="#68455D"/><path d="M74 20h9v3h-9z" fill="#68455D"/><path d="M71 23h3v3h-3z" fill="#68455D"/><path d="M83 23h3v3h-3z" fill="#68455D"/><path d="M71 26h3v3h-3z" fill="#68455D"/><path d="M83 26h3v3h-3z" fill="#68455D"/><path d="M71 29h3v3h-3z" fill="#68455D"/><path d="M83 29h3v3h-3z" fill="#68455D"/><path d="M71 32h3v3h-3z" fill="#68455D"/><path d="M83 32h3v3h-3z" fill="#68455D"/><path d="M71 35h3v3h-3z" fill="#68455D"/><path d="M83 35h3v3h-3z" fill="#68455D"/><path d="M74 38h9v3h-9z" fill="#68455D"/><path d="M89 20h3v3h-3z" fill="#68455D"/><path d="M101 20h3v3h-3z" fill="#68455D"/><path d="M89 23h6v3h-6z" fill="#68455D"/><path d="M101 23h3v3h-3z" fill="#68455D"/><path d="M89 26h6v3h-6z" fill="#68455D"/><path d="M101 26h3v3h-3z" fill="#68455D"/><path d="M89 29h3v3h-3z" fill="#68455D"/><path d="M95 29h3v3h-3z" fill="#68455D"/><path d="M101 29h3v3h-3z" fill="#68455D"/><path d="M89 32h3v3h-3z" fill="#68455D"/><path d="M98 32h6v3h-6z" fill="#68455D"/><path d="M89 35h3v3h-3z" fill="#68455D"/><path d="M98 35h6v3h-6z" fill="#68455D"/><path d="M89 38h3v3h-3z" fill="#68455D"/><path d="M101 38h3v3h-3z" fill="#68455D"/><path d="M107 20h15v3h-15z" fill="#68455D"/><path d="M113 23h3v3h-3z" fill="#68455D"/><path d="M113 26h3v3h-3z" fill="#68455D"/><path d="M113 29h3v3h-3z" fill="#68455D"/><path d="M113 32h3v3h-3z" fill="#68455D"/><path d="M113 35h3v3h-3z" fill="#68455D"/><path d="M113 38h3v3h-3z" fill="#68455D"/><path d="M125 20h15v3h-15z" fill="#68455D"/><path d="M125 23h3v3h-3z" fill="#68455D"/><path d="M125 26h3v3h-3z" fill="#68455D"/><path d="M125 29h12v3h-12z" fill="#68455D"/><path d="M125 32h3v3h-3z" fill="#68455D"/><path d="M125 35h3v3h-3z" fill="#68455D"/><path d="M125 38h15v3h-15z" fill="#68455D"/><path d="M143 20h3v3h-3z" fill="#68455D"/><path d="M155 20h3v3h-3z" fill="#68455D"/><path d="M143 23h6v3h-6z" fill="#68455D"/><path d="M155 23h3v3h-3z" fill="#68455D"/><path d="M143 26h6v3h-6z" fill="#68455D"/><path d="M155 26h3v3h-3z" fill="#68455D"/><path d="M143 29h3v3h-3z" fill="#68455D"/><path d="M149 29h3v3h-3z" fill="#68455D"/><path d="M155 29h3v3h-3z" fill="#68455D"/><path d="M143 32h3v3h-3z" fill="#68455D"/><path d="M152 32h6v3h-6z" fill="#68455D"/><path d="M143 35h3v3h-3z" fill="#68455D"/><path d="M152 35h6v3h-6z" fill="#68455D"/><path d="M143 38h3v3h-3z" fill="#68455D"/><path d="M155 38h3v3h-3z" fill="#68455D"/><path d="M161 20h12v3h-12z" fill="#68455D"/><path d="M161 23h3v3h-3z" fill="#68455D"/><path d="M173 23h3v3h-3z" fill="#68455D"/><path d="M161 26h3v3h-3z" fill="#68455D"/><path d="M173 26h3v3h-3z" fill="#68455D"/><path d="M161 29h3v3h-3z" fill="#68455D"/><path d="M173 29h3v3h-3z" fill="#68455D"/><path d="M161 32h3v3h-3z" fill="#68455D"/><path d="M173 32h3v3h-3z" fill="#68455D"/><path d="M161 35h3v3h-3z" fill="#68455D"/><path d="M173 35h3v3h-3z" fill="#68455D"/><path d="M161 38h12v3h-12z" fill="#68455D"/><path d="M200 20h12v3h-12z" fill="#68455D"/><path d="M197 23h3v3h-3z" fill="#68455D"/><path d="M197 26h3v3h-3z" fill="#68455D"/><path d="M197 29h3v3h-3z" fill="#68455D"/><path d="M197 32h3v3h-3z" fill="#68455D"/><path d="M197 35h3v3h-3z" fill="#68455D"/><path d="M200 38h12v3h-12z" fill="#68455D"/><path d="M215 20h12v3h-12z" fill="#68455D"/><path d="M215 23h3v3h-3z" fill="#68455D"/><path d="M227 23h3v3h-3z" fill="#68455D"/><path d="M215 26h3v3h-3z" fill="#68455D"/><path d="M227 26h3v3h-3z" fill="#68455D"/><path d="M215 29h12v3h-12z" fill="#68455D"/><path d="M215 32h3v3h-3z" fill="#68455D"/><path d="M221 32h3v3h-3z" fill="#68455D"/><path d="M215 35h3v3h-3z" fill="#68455D"/><path d="M224 35h3v3h-3z" fill="#68455D"/><path d="M215 38h3v3h-3z" fill="#68455D"/><path d="M227 38h3v3h-3z" fill="#68455D"/><path d="M236 20h9v3h-9z" fill="#68455D"/><path d="M233 23h3v3h-3z" fill="#68455D"/><path d="M245 23h3v3h-3z" fill="#68455D"/><path d="M233 26h3v3h-3z" fill="#68455D"/><path d="M245 26h3v3h-3z" fill="#68455D"/><path d="M233 29h15v3h-15z" fill="#68455D"/><path d="M233 32h3v3h-3z" fill="#68455D"/><path d="M245 32h3v3h-3z" fill="#68455D"/><path d="M233 35h3v3h-3z" fill="#68455D"/><path d="M245 35h3v3h-3z" fill="#68455D"/><path d="M233 38h3v3h-3z" fill="#68455D"/><path d="M245 38h3v3h-3z" fill="#68455D"/><path d="M251 20h15v3h-15z" fill="#68455D"/><path d="M251 23h3v3h-3z" fill="#68455D"/><path d="M251 26h3v3h-3z" fill="#68455D"/><path d="M251 29h12v3h-12z" fill="#68455D"/><path d="M251 32h3v3h-3z" fill="#68455D"/><path d="M251 35h3v3h-3z" fill="#68455D"/><path d="M251 38h3v3h-3z" fill="#68455D"/><path d="M269 20h15v3h-15z" fill="#68455D"/><path d="M275 23h3v3h-3z" fill="#68455D"/><path d="M275 26h3v3h-3z" fill="#68455D"/><path d="M275 29h3v3h-3z" fill="#68455D"/><path d="M275 32h3v3h-3z" fill="#68455D"/><path d="M275 35h3v3h-3z" fill="#68455D"/><path d="M275 38h3v3h-3z" fill="#68455D"/></g><g aria-label="FAYE × COVE"><path d="M86 44h10v2h-10z" fill="#68455D"/><path d="M86 46h2v2h-2z" fill="#68455D"/><path d="M86 48h2v2h-2z" fill="#68455D"/><path d="M86 50h8v2h-8z" fill="#68455D"/><path d="M86 52h2v2h-2z" fill="#68455D"/><path d="M86 54h2v2h-2z" fill="#68455D"/><path d="M86 56h2v2h-2z" fill="#68455D"/><path d="M100 44h6v2h-6z" fill="#68455D"/><path d="M98 46h2v2h-2z" fill="#68455D"/><path d="M106 46h2v2h-2z" fill="#68455D"/><path d="M98 48h2v2h-2z" fill="#68455D"/><path d="M106 48h2v2h-2z" fill="#68455D"/><path d="M98 50h10v2h-10z" fill="#68455D"/><path d="M98 52h2v2h-2z" fill="#68455D"/><path d="M106 52h2v2h-2z" fill="#68455D"/><path d="M98 54h2v2h-2z" fill="#68455D"/><path d="M106 54h2v2h-2z" fill="#68455D"/><path d="M98 56h2v2h-2z" fill="#68455D"/><path d="M106 56h2v2h-2z" fill="#68455D"/><path d="M110 44h2v2h-2z" fill="#68455D"/><path d="M118 44h2v2h-2z" fill="#68455D"/><path d="M110 46h2v2h-2z" fill="#68455D"/><path d="M118 46h2v2h-2z" fill="#68455D"/><path d="M112 48h2v2h-2z" fill="#68455D"/><path d="M116 48h2v2h-2z" fill="#68455D"/><path d="M114 50h2v2h-2z" fill="#68455D"/><path d="M114 52h2v2h-2z" fill="#68455D"/><path d="M114 54h2v2h-2z" fill="#68455D"/><path d="M114 56h2v2h-2z" fill="#68455D"/><path d="M122 44h10v2h-10z" fill="#68455D"/><path d="M122 46h2v2h-2z" fill="#68455D"/><path d="M122 48h2v2h-2z" fill="#68455D"/><path d="M122 50h8v2h-8z" fill="#68455D"/><path d="M122 52h2v2h-2z" fill="#68455D"/><path d="M122 54h2v2h-2z" fill="#68455D"/><path d="M122 56h10v2h-10z" fill="#68455D"/><path d="M146 46h2v2h-2z" fill="#68455D"/><path d="M154 46h2v2h-2z" fill="#68455D"/><path d="M148 48h2v2h-2z" fill="#68455D"/><path d="M152 48h2v2h-2z" fill="#68455D"/><path d="M150 50h2v2h-2z" fill="#68455D"/><path d="M148 52h2v2h-2z" fill="#68455D"/><path d="M152 52h2v2h-2z" fill="#68455D"/><path d="M146 54h2v2h-2z" fill="#68455D"/><path d="M154 54h2v2h-2z" fill="#68455D"/><path d="M172 44h8v2h-8z" fill="#68455D"/><path d="M170 46h2v2h-2z" fill="#68455D"/><path d="M170 48h2v2h-2z" fill="#68455D"/><path d="M170 50h2v2h-2z" fill="#68455D"/><path d="M170 52h2v2h-2z" fill="#68455D"/><path d="M170 54h2v2h-2z" fill="#68455D"/><path d="M172 56h8v2h-8z" fill="#68455D"/><path d="M184 44h6v2h-6z" fill="#68455D"/><path d="M182 46h2v2h-2z" fill="#68455D"/><path d="M190 46h2v2h-2z" fill="#68455D"/><path d="M182 48h2v2h-2z" fill="#68455D"/><path d="M190 48h2v2h-2z" fill="#68455D"/><path d="M182 50h2v2h-2z" fill="#68455D"/><path d="M190 50h2v2h-2z" fill="#68455D"/><path d="M182 52h2v2h-2z" fill="#68455D"/><path d="M190 52h2v2h-2z" fill="#68455D"/><path d="M182 54h2v2h-2z" fill="#68455D"/><path d="M190 54h2v2h-2z" fill="#68455D"/><path d="M184 56h6v2h-6z" fill="#68455D"/><path d="M194 44h2v2h-2z" fill="#68455D"/><path d="M202 44h2v2h-2z" fill="#68455D"/><path d="M194 46h2v2h-2z" fill="#68455D"/><path d="M202 46h2v2h-2z" fill="#68455D"/><path d="M194 48h2v2h-2z" fill="#68455D"/><path d="M202 48h2v2h-2z" fill="#68455D"/><path d="M194 50h2v2h-2z" fill="#68455D"/><path d="M202 50h2v2h-2z" fill="#68455D"/><path d="M194 52h2v2h-2z" fill="#68455D"/><path d="M202 52h2v2h-2z" fill="#68455D"/><path d="M196 54h2v2h-2z" fill="#68455D"/><path d="M200 54h2v2h-2z" fill="#68455D"/><path d="M198 56h2v2h-2z" fill="#68455D"/><path d="M206 44h10v2h-10z" fill="#68455D"/><path d="M206 46h2v2h-2z" fill="#68455D"/><path d="M206 48h2v2h-2z" fill="#68455D"/><path d="M206 50h8v2h-8z" fill="#68455D"/><path d="M206 52h2v2h-2z" fill="#68455D"/><path d="M206 54h2v2h-2z" fill="#68455D"/><path d="M206 56h10v2h-10z" fill="#68455D"/></g></g></g></svg>
